<svg xmlns="http://www.w3.org/2000/svg" version="1.1" xmlns:xlink="http://www.w3.org/1999/xlink" xmlns:svgjs="http://svgjs.dev/svgjs" width="1500" height="1500" viewBox="0 0 1500 1500"><rect width="1500" height="1500" fill="#ffffff"></rect><g transform="matrix(0.6666666666666666,0,0,0.6666666666666666,249.57411931014053,334.2427423428735)"><svg viewBox="0 0 299 248" data-background-color="#ffffff" preserveAspectRatio="xMidYMid meet" height="1244" width="1500" xmlns="http://www.w3.org/2000/svg" xmlns:xlink="http://www.w3.org/1999/xlink"><g id="tight-bounds" transform="matrix(1,0,0,1,0.12733832626798858,0.4000000000000057)"><svg viewBox="0 0 298.745323347464 247.2" height="247.2" width="298.745323347464"><g><svg viewBox="0 0 395.52 327.277237027349" height="247.2" width="298.745323347464"><g transform="matrix(1,0,0,1,0,136.92001777601212)"><svg viewBox="0 0 395.52 190.35721925133686" height="190.35721925133686" width="395.52"><g id="textblocktransform"><svg viewBox="0 0 395.52 190.35721925133686" height="190.35721925133686" width="395.52" id="textblock"><g><svg viewBox="0 0 395.52 190.35721925133686" height="190.35721925133686" width="395.52"><g transform="matrix(1,0,0,1,0,0)"><svg width="395.52" viewBox="0.8 -35.35 74.79 36" height="190.35721925133686" data-palette-color="url(#d3e35b41-8a14-4049-8457-17a25a018a19)"></svg></g></svg></g></svg></g></svg></g><g transform="matrix(1,0,0,1,135.4300032,0)"><svg viewBox="0 0 124.6599936 91.98124688403351" height="91.98124688403351" width="124.6599936"><g><svg xmlns="http://www.w3.org/2000/svg" xml:space="preserve" viewBox="21.73099999999999 26.068057897173432 56.54299999999999 47.86394210282657" x="8" y="0" height="91.98124688403351" width="108.6599936" class="icon-icon-0" data-fill-palette-color="accent" id="icon-0"><path d="M70.252 51.597a26.04 26.04 0 0 0 4.829-14.102 1.64 1.64 0 0 0-0.481-1.232 1.61 1.61 0 0 0-1.233-0.48c-2.619 0.109-5.17 0.608-7.588 1.453a26.2 26.2 0 0 0-1.563-7.571 1.647 1.647 0 0 0-2.238-0.93 25.9 25.9 0 0 0-6.423 4.233 26.2 26.2 0 0 0-4.329-6.37 1.54 1.54 0 0 0-0.558-0.382 1.645 1.645 0 0 0-1.891 0.382 26.2 26.2 0 0 0-4.328 6.368 25.9 25.9 0 0 0-6.421-4.231 1.647 1.647 0 0 0-2.238 0.929 26.2 26.2 0 0 0-1.566 7.572 26.3 26.3 0 0 0-7.588-1.453 1.648 1.648 0 0 0-1.715 1.712 26.05 26.05 0 0 0 4.83 14.102c-5.188 2.405-8.02 5.643-8.02 9.249 0 1.966 0.844 3.832 2.508 5.547a1.66 1.66 0 0 0 1.613 0.442c3.21-0.871 5.715-0.646 7.01 0.648 0.688 0.688 1.076 1.728 1.152 3.09a1.645 1.645 0 0 0 1.208 1.496c4.427 1.219 9.539 1.863 14.781 1.863 15.853 0 28.271-5.749 28.271-13.087-0.003-3.607-2.834-6.843-8.022-9.248m-3.809-0.454c-0.023 0.023-0.053 0.038-0.075 0.064l-0.305 0.35c-0.3 0.338-0.597 0.677-0.918 0.998-0.459 0.459-0.94 0.89-1.432 1.305-0.149 0.126-0.303 0.244-0.455 0.365a23 23 0 0 1-2.889 1.97c-0.123 0.071-0.243 0.147-0.367 0.216q-0.84 0.461-1.714 0.849c-0.128 0.057-0.26 0.104-0.389 0.159q-0.693 0.292-1.404 0.539-0.288 0.099-0.578 0.188-0.663 0.21-1.34 0.377c-0.183 0.046-0.364 0.096-0.549 0.137-0.086 0.02-0.174 0.029-0.259 0.048 0.021-0.031 0.038-0.064 0.059-0.095l0.057-0.087 0.006-0.006 0.015-0.022 0.02-0.027 0.026-0.041 0.045-0.067 0.008-0.012q0.006-0.011 0.011-0.021 0.331-0.514 0.636-1.042l0.01-0.016q0.212-0.37 0.411-0.746l0.007-0.008 0.004-0.007 0.067-0.124h-0.001l0.006-0.009 0.006-0.018q0.473-0.903 0.874-1.837l0.005-0.007 0.002-0.005 0.031-0.072 0.005-0.013 0.045-0.104q0.003-0.01 0.004-0.019 0.4-0.953 0.722-1.935l0.065-0.197-0.003-0.001a26 26 0 0 0 0.598-2.208h0.001l0.001-0.008q0.255-1.137 0.406-2.297l0.002-0.017q0.103-0.801 0.157-1.611c0.001-0.026 0.006-0.051 0.007-0.078 0.069-0.077 0.136-0.155 0.21-0.229q0.7-0.7 1.46-1.335 0.046-0.036 0.094-0.073a22.8 22.8 0 0 1 4.996-3.138q0.014-0.008 0.026-0.017a22.9 22.9 0 0 1 6.769-1.933 22.7 22.7 0 0 1-5.196 11.917M54.76 45.969a23 23 0 0 1-0.219 1.89q-0.042 0.248-0.088 0.495-0.123 0.685-0.287 1.359c-0.045 0.183-0.097 0.363-0.146 0.544-0.116 0.429-0.24 0.855-0.382 1.276-0.066 0.194-0.141 0.387-0.212 0.579a23 23 0 0 1-0.472 1.202c-0.085 0.196-0.182 0.389-0.272 0.583-0.18 0.385-0.361 0.77-0.562 1.145-0.102 0.189-0.217 0.372-0.324 0.559-0.213 0.371-0.424 0.742-0.658 1.102-0.118 0.182-0.251 0.354-0.374 0.531-0.243 0.351-0.482 0.703-0.746 1.042l-0.01 0.012c-0.036-0.047-0.077-0.09-0.113-0.137-0.143-0.187-0.271-0.38-0.408-0.57a23 23 0 0 1-0.723-1.046c-0.11-0.173-0.21-0.353-0.315-0.528-0.232-0.386-0.46-0.773-0.669-1.172-0.087-0.166-0.165-0.336-0.248-0.504a24 24 0 0 1-0.581-1.259c-0.072-0.172-0.136-0.347-0.204-0.521a22 22 0 0 1-0.465-1.29c-0.062-0.189-0.116-0.382-0.172-0.574q-0.187-0.63-0.338-1.272-0.074-0.324-0.138-0.65a23 23 0 0 1-0.215-1.233 24 24 0 0 1-0.194-1.93q-0.006-0.143-0.012-0.287l0.001-0.015q-0.001-0.019-0.004-0.039c-0.014-0.325-0.041-0.648-0.041-0.975q0.001-0.984 0.086-1.958c0.018-0.202 0.053-0.4 0.076-0.601 0.051-0.449 0.102-0.897 0.179-1.341 0.037-0.213 0.091-0.422 0.134-0.633 0.088-0.432 0.177-0.864 0.291-1.291 0.052-0.196 0.118-0.389 0.175-0.583 0.129-0.438 0.263-0.874 0.418-1.305a22.8 22.8 0 0 1 3.471-6.298 22.73 22.73 0 0 1 4.83 14.01c0.001 0.565-0.028 1.125-0.069 1.683m2.113-9.722a22.7 22.7 0 0 1 4.821-3.666c0.547 1.973 0.824 3.997 0.831 6.045a26 26 0 0 0-4.449 2.881q-0.038 0.03-0.075 0.057c-0.012-0.109-0.03-0.217-0.043-0.326a25 25 0 0 0-0.112-0.862q-0.034-0.22-0.073-0.442a28 28 0 0 0-0.246-1.268 26 26 0 0 0-0.219-0.914q-0.043-0.167-0.088-0.335a27 27 0 0 0-0.299-1.011c-0.018-0.052-0.03-0.106-0.048-0.159m-18.566-3.666a22.8 22.8 0 0 1 4.822 3.667 26 26 0 0 0-1.126 5.319q-0.034-0.027-0.069-0.053a26 26 0 0 0-4.459-2.889c0.005-2.049 0.285-4.072 0.832-6.044m-3.176 8.58q0.013 0.008 0.026 0.017a22.7 22.7 0 0 1 4.982 3.127q0.055 0.042 0.11 0.085 0.76 0.635 1.459 1.334 0.11 0.113 0.21 0.231a25.95 25.95 0 0 0 4.315 12.754c-0.082-0.018-0.166-0.027-0.248-0.046-0.197-0.044-0.391-0.096-0.586-0.146a22 22 0 0 1-3.279-1.09c-0.137-0.058-0.278-0.107-0.414-0.168A23 23 0 0 1 40 56.414c-0.129-0.071-0.253-0.151-0.381-0.225a22 22 0 0 1-1.263-0.779 23.426 23.426 0 0 1-1.617-1.186c-0.151-0.121-0.305-0.239-0.453-0.364a23 23 0 0 1-1.434-1.306c-0.321-0.32-0.618-0.659-0.917-0.996-0.103-0.118-0.209-0.237-0.308-0.354-0.021-0.024-0.05-0.039-0.072-0.062a22.7 22.7 0 0 1-5.194-11.916c2.365 0.292 4.641 0.956 6.77 1.935M50 70.638c-4.53 0-8.941-0.505-12.834-1.465-0.281-1.638-0.943-2.985-1.977-4.02-2.013-2.013-5.185-2.623-9.187-1.746-0.65-0.854-0.979-1.712-0.979-2.562 0-2.333 2.552-4.762 6.885-6.607 0.203 0.217 0.405 0.435 0.616 0.646a25.98 25.98 0 0 0 17.473 7.609h0.023l0.009-0.001 0.036-0.001a26 26 0 0 0 17.411-7.607c0.211-0.211 0.413-0.429 0.616-0.646 4.334 1.846 6.885 4.274 6.885 6.607 0 4.633-10.258 9.793-24.977 9.793" fill="#000000" data-fill-palette-color="accent"></path></svg></g></svg></g><g><rect width="87.04266487373201" height="17.166610480735827" y="73.81463640329768" x="260.0899968" fill="#000000" data-fill-palette-color="accent"></rect><rect width="87.04266487373201" height="17.166610480735827" y="73.81463640329768" x="48.38733832626798" fill="#000000" data-fill-palette-color="accent"></rect><rect width="87.04266487373201" height="17.166610480735827" y="39.48141544182603" x="260.0899968" fill="#000000" data-fill-palette-color="accent"></rect><rect width="87.04266487373201" height="17.166610480735827" y="39.48141544182603" x="48.38733832626798" fill="#000000" data-fill-palette-color="accent"></rect></g></svg></g><defs></defs><mask id="2fc79182-a4ba-4116-9e33-3b8f012dc941"><g id="SvgjsG1263"><svg viewBox="0 0 298.745323347464 247.2" height="247.2" width="298.745323347464"><g><svg viewBox="0 0 395.52 327.277237027349" height="247.2" width="298.745323347464"><g transform="matrix(1,0,0,1,0,136.92001777601212)"><svg viewBox="0 0 395.52 190.35721925133686" height="190.35721925133686" width="395.52"><g id="SvgjsG1262"><svg viewBox="0 0 395.52 190.35721925133686" height="190.35721925133686" width="395.52" id="SvgjsSvg1261"><g><svg viewBox="0 0 395.52 190.35721925133686" height="190.35721925133686" width="395.52"><g transform="matrix(1,0,0,1,0,0)"><svg width="395.52" viewBox="0.8 -35.35 74.79 36" height="190.35721925133686" data-palette-color="url(#d3e35b41-8a14-4049-8457-17a25a018a19)"><path d="M25.15-34.7Q25.9-34.7 25.9-33.45L25.9-33.45Q25.9-32.6 25.53-31.78 25.15-30.95 24.6-30.7L24.6-30.7 23.45-31Q20.95-31.7 19.18-32.1 17.4-32.5 15.6-32.65L15.6-32.65 15.65-6Q15.65-2.3 16.35-0.45L16.35-0.45Q15.95-0.05 15.28 0.28 14.6 0.6 13.75 0.6L13.75 0.6Q12.55 0.6 11.83-0.08 11.1-0.75 11.1-1.9L11.1-1.9 11.05-32.7Q7.75-32.35 2.1-30.7L2.1-30.7Q1.55-30.95 1.18-31.78 0.8-32.6 0.8-33.45L0.8-33.45Q0.8-34 1-34.35 1.2-34.7 1.6-34.7L1.6-34.7 25.15-34.7ZM54.9-3Q55.4-1.35 56.2-0.5L56.2-0.5Q55.25 0.55 53.5 0.55L53.5 0.55Q52.4 0.55 51.62 0.08 50.85-0.4 50.65-1.25L50.65-1.25 47.8-10.85 35.05-10.85 32.75-2.9Q32.45-1.7 32.45-1.15L32.45-1.15Q32.45-0.3 32.8 0.1L32.8 0.1Q31.55 0.55 30.3 0.55L30.3 0.55Q28.95 0.55 28.32 0.08 27.7-0.4 27.7-1.45L27.7-1.45Q27.7-2.3 28.25-3.95L28.25-3.95 38.65-34.65Q40.45-35.35 42.45-35.35L42.45-35.35Q44.65-35.35 45.1-33.75L45.1-33.75 54.9-3ZM35.85-13.5L47-13.5 41.35-32.4 35.85-13.5ZM66.4 0.65Q62.6 0.65 60.7-0.95 58.8-2.55 58.8-4.85L58.8-4.85Q58.8-6.15 59.52-7.1 60.25-8.05 61.6-8.05L61.6-8.05Q62.8-8.05 63.3-7.2L63.3-7.2Q62.8-6.15 62.8-4.95L62.8-4.95Q62.8-3.3 63.9-2.3 65-1.3 66.4-1.3L66.4-1.3Q68.95-1.3 69.84-3.2 70.75-5.1 70.75-8.7L70.75-8.7 70.75-30.45Q70.75-32.45 71-33.15L71-33.15Q69.25-33.15 66.05-33.35L66.05-33.35Q65.05-33.4 64.3-32.95 63.55-32.5 63.55-31.4L63.55-31.4Q63.55-29.6 65.05-28.8L65.05-28.8Q64.3-28.25 63.05-28.25L63.05-28.25Q61.85-28.25 60.9-29.2 59.95-30.15 59.95-31.7L59.95-31.7Q59.95-33.35 61.17-34.35 62.4-35.35 64.59-35.35L64.59-35.35 67.4-35.25Q70.2-35.05 71.95-35.05L71.95-35.05Q73.95-35.05 75.59-35.3L75.59-35.3Q75.34-33.8 75.34-31.6L75.34-31.6 75.34-9.1Q75.34 0.65 66.4 0.65L66.4 0.65Z" opacity="1" transform="matrix(1,0,0,1,0,0)" fill="white" class="wordmark-text-0" id="SvgjsPath1260"></path></svg></g></svg></g></svg></g></svg></g><g transform="matrix(1,0,0,1,135.4300032,0)"><svg viewBox="0 0 124.6599936 91.98124688403351" height="91.98124688403351" width="124.6599936"><g><svg xmlns="http://www.w3.org/2000/svg" xml:space="preserve" viewBox="21.73099999999999 26.068057897173432 56.54299999999999 47.86394210282657" x="8" y="0" height="91.98124688403351" width="108.6599936" class="icon-icon-0" data-fill-palette-color="accent" id="SvgjsSvg1259"><path d="M70.252 51.597a26.04 26.04 0 0 0 4.829-14.102 1.64 1.64 0 0 0-0.481-1.232 1.61 1.61 0 0 0-1.233-0.48c-2.619 0.109-5.17 0.608-7.588 1.453a26.2 26.2 0 0 0-1.563-7.571 1.647 1.647 0 0 0-2.238-0.93 25.9 25.9 0 0 0-6.423 4.233 26.2 26.2 0 0 0-4.329-6.37 1.54 1.54 0 0 0-0.558-0.382 1.645 1.645 0 0 0-1.891 0.382 26.2 26.2 0 0 0-4.328 6.368 25.9 25.9 0 0 0-6.421-4.231 1.647 1.647 0 0 0-2.238 0.929 26.2 26.2 0 0 0-1.566 7.572 26.3 26.3 0 0 0-7.588-1.453 1.648 1.648 0 0 0-1.715 1.712 26.05 26.05 0 0 0 4.83 14.102c-5.188 2.405-8.02 5.643-8.02 9.249 0 1.966 0.844 3.832 2.508 5.547a1.66 1.66 0 0 0 1.613 0.442c3.21-0.871 5.715-0.646 7.01 0.648 0.688 0.688 1.076 1.728 1.152 3.09a1.645 1.645 0 0 0 1.208 1.496c4.427 1.219 9.539 1.863 14.781 1.863 15.853 0 28.271-5.749 28.271-13.087-0.003-3.607-2.834-6.843-8.022-9.248m-3.809-0.454c-0.023 0.023-0.053 0.038-0.075 0.064l-0.305 0.35c-0.3 0.338-0.597 0.677-0.918 0.998-0.459 0.459-0.94 0.89-1.432 1.305-0.149 0.126-0.303 0.244-0.455 0.365a23 23 0 0 1-2.889 1.97c-0.123 0.071-0.243 0.147-0.367 0.216q-0.84 0.461-1.714 0.849c-0.128 0.057-0.26 0.104-0.389 0.159q-0.693 0.292-1.404 0.539-0.288 0.099-0.578 0.188-0.663 0.21-1.34 0.377c-0.183 0.046-0.364 0.096-0.549 0.137-0.086 0.02-0.174 0.029-0.259 0.048 0.021-0.031 0.038-0.064 0.059-0.095l0.057-0.087 0.006-0.006 0.015-0.022 0.02-0.027 0.026-0.041 0.045-0.067 0.008-0.012q0.006-0.011 0.011-0.021 0.331-0.514 0.636-1.042l0.01-0.016q0.212-0.37 0.411-0.746l0.007-0.008 0.004-0.007 0.067-0.124h-0.001l0.006-0.009 0.006-0.018q0.473-0.903 0.874-1.837l0.005-0.007 0.002-0.005 0.031-0.072 0.005-0.013 0.045-0.104q0.003-0.01 0.004-0.019 0.4-0.953 0.722-1.935l0.065-0.197-0.003-0.001a26 26 0 0 0 0.598-2.208h0.001l0.001-0.008q0.255-1.137 0.406-2.297l0.002-0.017q0.103-0.801 0.157-1.611c0.001-0.026 0.006-0.051 0.007-0.078 0.069-0.077 0.136-0.155 0.21-0.229q0.7-0.7 1.46-1.335 0.046-0.036 0.094-0.073a22.8 22.8 0 0 1 4.996-3.138q0.014-0.008 0.026-0.017a22.9 22.9 0 0 1 6.769-1.933 22.7 22.7 0 0 1-5.196 11.917M54.76 45.969a23 23 0 0 1-0.219 1.89q-0.042 0.248-0.088 0.495-0.123 0.685-0.287 1.359c-0.045 0.183-0.097 0.363-0.146 0.544-0.116 0.429-0.24 0.855-0.382 1.276-0.066 0.194-0.141 0.387-0.212 0.579a23 23 0 0 1-0.472 1.202c-0.085 0.196-0.182 0.389-0.272 0.583-0.18 0.385-0.361 0.77-0.562 1.145-0.102 0.189-0.217 0.372-0.324 0.559-0.213 0.371-0.424 0.742-0.658 1.102-0.118 0.182-0.251 0.354-0.374 0.531-0.243 0.351-0.482 0.703-0.746 1.042l-0.01 0.012c-0.036-0.047-0.077-0.09-0.113-0.137-0.143-0.187-0.271-0.38-0.408-0.57a23 23 0 0 1-0.723-1.046c-0.11-0.173-0.21-0.353-0.315-0.528-0.232-0.386-0.46-0.773-0.669-1.172-0.087-0.166-0.165-0.336-0.248-0.504a24 24 0 0 1-0.581-1.259c-0.072-0.172-0.136-0.347-0.204-0.521a22 22 0 0 1-0.465-1.29c-0.062-0.189-0.116-0.382-0.172-0.574q-0.187-0.63-0.338-1.272-0.074-0.324-0.138-0.65a23 23 0 0 1-0.215-1.233 24 24 0 0 1-0.194-1.93q-0.006-0.143-0.012-0.287l0.001-0.015q-0.001-0.019-0.004-0.039c-0.014-0.325-0.041-0.648-0.041-0.975q0.001-0.984 0.086-1.958c0.018-0.202 0.053-0.4 0.076-0.601 0.051-0.449 0.102-0.897 0.179-1.341 0.037-0.213 0.091-0.422 0.134-0.633 0.088-0.432 0.177-0.864 0.291-1.291 0.052-0.196 0.118-0.389 0.175-0.583 0.129-0.438 0.263-0.874 0.418-1.305a22.8 22.8 0 0 1 3.471-6.298 22.73 22.73 0 0 1 4.83 14.01c0.001 0.565-0.028 1.125-0.069 1.683m2.113-9.722a22.7 22.7 0 0 1 4.821-3.666c0.547 1.973 0.824 3.997 0.831 6.045a26 26 0 0 0-4.449 2.881q-0.038 0.03-0.075 0.057c-0.012-0.109-0.03-0.217-0.043-0.326a25 25 0 0 0-0.112-0.862q-0.034-0.22-0.073-0.442a28 28 0 0 0-0.246-1.268 26 26 0 0 0-0.219-0.914q-0.043-0.167-0.088-0.335a27 27 0 0 0-0.299-1.011c-0.018-0.052-0.03-0.106-0.048-0.159m-18.566-3.666a22.8 22.8 0 0 1 4.822 3.667 26 26 0 0 0-1.126 5.319q-0.034-0.027-0.069-0.053a26 26 0 0 0-4.459-2.889c0.005-2.049 0.285-4.072 0.832-6.044m-3.176 8.58q0.013 0.008 0.026 0.017a22.7 22.7 0 0 1 4.982 3.127q0.055 0.042 0.11 0.085 0.76 0.635 1.459 1.334 0.11 0.113 0.21 0.231a25.95 25.95 0 0 0 4.315 12.754c-0.082-0.018-0.166-0.027-0.248-0.046-0.197-0.044-0.391-0.096-0.586-0.146a22 22 0 0 1-3.279-1.09c-0.137-0.058-0.278-0.107-0.414-0.168A23 23 0 0 1 40 56.414c-0.129-0.071-0.253-0.151-0.381-0.225a22 22 0 0 1-1.263-0.779 23.426 23.426 0 0 1-1.617-1.186c-0.151-0.121-0.305-0.239-0.453-0.364a23 23 0 0 1-1.434-1.306c-0.321-0.32-0.618-0.659-0.917-0.996-0.103-0.118-0.209-0.237-0.308-0.354-0.021-0.024-0.05-0.039-0.072-0.062a22.7 22.7 0 0 1-5.194-11.916c2.365 0.292 4.641 0.956 6.77 1.935M50 70.638c-4.53 0-8.941-0.505-12.834-1.465-0.281-1.638-0.943-2.985-1.977-4.02-2.013-2.013-5.185-2.623-9.187-1.746-0.65-0.854-0.979-1.712-0.979-2.562 0-2.333 2.552-4.762 6.885-6.607 0.203 0.217 0.405 0.435 0.616 0.646a25.98 25.98 0 0 0 17.473 7.609h0.023l0.009-0.001 0.036-0.001a26 26 0 0 0 17.411-7.607c0.211-0.211 0.413-0.429 0.616-0.646 4.334 1.846 6.885 4.274 6.885 6.607 0 4.633-10.258 9.793-24.977 9.793" fill="black"></path></svg></g></svg></g><g><rect width="87.04266487373201" height="17.166610480735827" y="73.81463640329768" x="260.0899968" fill="black"></rect><rect width="87.04266487373201" height="17.166610480735827" y="73.81463640329768" x="48.38733832626798" fill="black"></rect><rect width="87.04266487373201" height="17.166610480735827" y="39.48141544182603" x="260.0899968" fill="black"></rect><rect width="87.04266487373201" height="17.166610480735827" y="39.48141544182603" x="48.38733832626798" fill="black"></rect></g></svg></g><defs><mask></mask></defs></svg><rect width="298.745323347464" height="247.2" fill="black" stroke="none" visibility="hidden"></rect></g></mask><linearGradient x1="0.054" x2="0.941" y1="0.5" y2="0.5" id="d3e35b41-8a14-4049-8457-17a25a018a19"><stop stop-color="#0f3054" offset="0"></stop><stop stop-color="#3b8dcb" offset="0.498"></stop><stop stop-color="#0f3054" offset="1"></stop></linearGradient><rect width="298.745323347464" height="247.37094151759993" fill="#000000" mask="url(#2fc79182-a4ba-4116-9e33-3b8f012dc941)" data-fill-palette-color="primary"></rect></svg><rect width="298.745323347464" height="247.2" fill="none" stroke="none" visibility="hidden"></rect></g></svg></g></svg>